<svg xmlns="http://www.w3.org/2000/svg" viewBox="0 0 96 96" role="img" aria-label="Protected local data">
  <defs><linearGradient id="g" x1="0" y1="0" x2="1" y2="1"><stop stop-color="#69D7FF"/><stop offset="1" stop-color="#F4B860"/></linearGradient></defs>
  <rect x="2" y="2" width="92" height="92" rx="22" fill="#071426" stroke="url(#g)" stroke-width="2"/>
  <ellipse cx="42" cy="27" rx="22" ry="9" fill="#0E2940" stroke="#69D7FF" stroke-width="2"/>
  <path d="M20 27v30c0 5 10 9 22 9 5 0 9-1 13-2M64 27v19M20 42c0 5 10 9 22 9 9 0 17-3 21-6" fill="none" stroke="#69D7FF" stroke-width="2"/>
  <rect x="51" y="51" width="27" height="24" rx="5" fill="#0E2940" stroke="#F4B860" stroke-width="2"/>
  <path d="M57 51v-5a8 8 0 0 1 16 0v5" fill="none" stroke="#F4B860" stroke-width="3"/>
  <circle cx="64.5" cy="63" r="3" fill="#F4B860"/>
</svg>
